<svg width="16" height="16" viewBox="0 0 16 16" fill="none" xmlns="http://www.w3.org/2000/svg">
<path d="M14.6666 11.16V3.11336C14.6666 2.31336 14.0133 1.72002 13.22 1.78669H13.18C11.78 1.90669 9.65331 2.62002 8.46665 3.36669L8.35331 3.44002C8.15998 3.56002 7.83998 3.56002 7.64665 3.44002L7.47998 3.34002C6.29331 2.60002 4.17331 1.89336 2.77331 1.78002C1.97998 1.71336 1.33331 2.31336 1.33331 3.10669V11.16C1.33331 11.8 1.85331 12.4 2.49331 12.48L2.68665 12.5067C4.13331 12.7 6.36665 13.4334 7.64665 14.1334L7.67331 14.1467C7.85331 14.2467 8.13998 14.2467 8.31331 14.1467C9.59331 13.44 11.8333 12.7 13.2866 12.5067L13.5066 12.48C14.1466 12.4 14.6666 11.8 14.6666 11.16Z" stroke="#0A2A51" stroke-width="1.5" stroke-linecap="round" stroke-linejoin="round"/>
<path d="M8 3.65997V13.66" stroke="#0A2A51" stroke-width="1.5" stroke-linecap="round" stroke-linejoin="round"/>
<path d="M5.16669 5.65997H3.66669" stroke="#0A2A51" stroke-linecap="round" stroke-linejoin="round"/>
<path d="M5.66669 7.65997H3.66669" stroke="#292D32" stroke-width="1.5" stroke-linecap="round" stroke-linejoin="round"/>
</svg>
