<svg width="16" height="16" viewBox="0 0 16 16" fill="none" xmlns="http://www.w3.org/2000/svg">
<path d="M11.3333 6.66665H12.6666C14 6.66665 14.6666 5.99998 14.6666 4.66665V3.33331C14.6666 1.99998 14 1.33331 12.6666 1.33331H11.3333C9.99998 1.33331 9.33331 1.99998 9.33331 3.33331V4.66665C9.33331 5.99998 9.99998 6.66665 11.3333 6.66665Z" stroke="#0A2A51" stroke-width="1.5" stroke-miterlimit="10" stroke-linecap="round" stroke-linejoin="round"/>
<path d="M3.33331 14.6666H4.66665C5.99998 14.6666 6.66665 14 6.66665 12.6666V11.3333C6.66665 9.99998 5.99998 9.33331 4.66665 9.33331H3.33331C1.99998 9.33331 1.33331 9.99998 1.33331 11.3333V12.6666C1.33331 14 1.99998 14.6666 3.33331 14.6666Z" stroke="#0A2A51" stroke-width="1.5" stroke-miterlimit="10" stroke-linecap="round" stroke-linejoin="round"/>
<path d="M3.99998 6.66665C5.47274 6.66665 6.66665 5.47274 6.66665 3.99998C6.66665 2.52722 5.47274 1.33331 3.99998 1.33331C2.52722 1.33331 1.33331 2.52722 1.33331 3.99998C1.33331 5.47274 2.52722 6.66665 3.99998 6.66665Z" stroke="#0A2A51" stroke-width="1.5" stroke-miterlimit="10" stroke-linecap="round" stroke-linejoin="round"/>
<path d="M12 14.6666C13.4727 14.6666 14.6666 13.4727 14.6666 12C14.6666 10.5272 13.4727 9.33331 12 9.33331C10.5272 9.33331 9.33331 10.5272 9.33331 12C9.33331 13.4727 10.5272 14.6666 12 14.6666Z" stroke="#0A2A51" stroke-width="1.5" stroke-miterlimit="10" stroke-linecap="round" stroke-linejoin="round"/>
</svg>
