<svg width="16" height="16" viewBox="0 0 16 16" fill="none" xmlns="http://www.w3.org/2000/svg">
<g clip-path="url(#clip0_1_6019)">
<path d="M7.99999 7.05732L10.8287 4.22866C11.089 3.96835 11.511 3.96835 11.7713 4.22866C12.0316 4.48897 12.0316 4.91101 11.7713 5.17132L8.94266 7.99999L11.7713 10.8287C12.0316 11.089 12.0316 11.511 11.7713 11.7713C11.511 12.0316 11.089 12.0316 10.8287 11.7713L7.99999 8.94266L5.17132 11.7713C4.91101 12.0316 4.48897 12.0316 4.22866 11.7713C3.96835 11.511 3.96835 11.089 4.22866 10.8287L7.05732 7.99999L4.22866 5.17132C3.96835 4.91101 3.96835 4.48897 4.22866 4.22866C4.48897 3.96835 4.91101 3.96835 5.17132 4.22866L7.99999 7.05732Z" fill="#647E9A"/>
</g>
<defs>
<clipPath id="clip0_1_6019">
<rect width="16" height="16" fill="white"/>
</clipPath>
</defs>
</svg>
