<svg width="16" height="16" viewBox="0 0 16 16" fill="none" xmlns="http://www.w3.org/2000/svg">
<path d="M8.1001 11V12.4" stroke="#0A2A51" stroke-width="1.5" stroke-linecap="round" stroke-linejoin="round"/>
<path d="M4.7666 14.6667H11.4333V14C11.4333 13.2667 10.8333 12.6667 10.0999 12.6667H6.09993C5.3666 12.6667 4.7666 13.2667 4.7666 14V14.6667V14.6667Z" stroke="#0A2A51" stroke-width="1.5" stroke-miterlimit="10"/>
<path d="M4.1001 14.6667H12.1001" stroke="#0A2A51" stroke-linecap="round" stroke-linejoin="round"/>
<path d="M7.99992 10.6666C5.41992 10.6666 3.33325 8.57998 3.33325 5.99998V3.99998C3.33325 2.52665 4.52659 1.33331 5.99992 1.33331H9.99992C11.4733 1.33331 12.6666 2.52665 12.6666 3.99998V5.99998C12.6666 8.57998 10.5799 10.6666 7.99992 10.6666Z" stroke="#0A2A51" stroke-linecap="round" stroke-linejoin="round"/>
<path d="M3.64677 7.76669C3.14677 7.60669 2.70677 7.31336 2.36011 6.96669C1.76011 6.30002 1.36011 5.50002 1.36011 4.56669C1.36011 3.63336 2.09344 2.90002 3.02677 2.90002H3.46011C3.32677 3.20669 3.26011 3.54669 3.26011 3.90002V5.90002C3.26011 6.56669 3.40011 7.19336 3.64677 7.76669Z" stroke="#0A2A51" stroke-width="1.5" stroke-linecap="round" stroke-linejoin="round"/>
<path d="M12.3533 7.76669C12.8533 7.60669 13.2933 7.31336 13.6399 6.96669C14.2399 6.30002 14.6399 5.50002 14.6399 4.56669C14.6399 3.63336 13.9066 2.90002 12.9733 2.90002H12.5399C12.6733 3.20669 12.7399 3.54669 12.7399 3.90002V5.90002C12.7399 6.56669 12.5999 7.19336 12.3533 7.76669Z" stroke="#0A2A51" stroke-width="1.5" stroke-linecap="round" stroke-linejoin="round"/>
</svg>
