<svg width="16" height="16" viewBox="0 0 16 16" fill="none" xmlns="http://www.w3.org/2000/svg">
<path d="M11.3334 12.2867H8.66671L5.70003 14.26C5.26003 14.5533 4.66671 14.24 4.66671 13.7067V12.2867C2.66671 12.2867 1.33337 10.9534 1.33337 8.95337V4.95333C1.33337 2.95333 2.66671 1.62 4.66671 1.62H11.3334C13.3334 1.62 14.6667 2.95333 14.6667 4.95333V8.95337C14.6667 10.9534 13.3334 12.2867 11.3334 12.2867Z" stroke="#0A2A51" stroke-width="1.2" stroke-miterlimit="10" stroke-linecap="round" stroke-linejoin="round"/>
<path d="M7.99996 7.5733V7.43333C7.99996 6.98 8.27998 6.73998 8.55998 6.54665C8.83331 6.35998 9.10661 6.11999 9.10661 5.67999C9.10661 5.06666 8.61329 4.5733 7.99996 4.5733C7.38663 4.5733 6.89331 5.06666 6.89331 5.67999" stroke="#0A2A51" stroke-width="1.2" stroke-linecap="round" stroke-linejoin="round"/>
<path d="M7.99696 9.16665H8.00296" stroke="#0A2A51" stroke-width="1.2" stroke-linecap="square" stroke-linejoin="round"/>
</svg>
