<svg width="16" height="16" viewBox="0 0 16 16" fill="none" xmlns="http://www.w3.org/2000/svg">
<path d="M3.33289 1.90656H5.34753C5.70478 1.90143 6.0521 2.02407 6.32703 2.25226C6.56759 2.45192 6.73944 2.7208 6.81921 3.02081L6.84753 3.15167C6.85781 3.22544 6.86916 3.30115 6.88269 3.37726L6.9325 3.62433C7.00429 3.9429 7.09707 4.25634 7.20984 4.56281V4.56378C7.28012 4.75696 7.27686 4.96979 7.20007 5.16046C7.12366 5.34996 6.97974 5.50432 6.79675 5.59503L6.4989 5.73175L6.00281 5.95831L6.27136 6.43292C6.65943 7.11717 7.13302 7.74995 7.68054 8.31476L7.6864 8.32062L7.69226 8.3255C8.25702 8.873 8.88893 9.34662 9.57312 9.73468L10.0399 9.99933L10.2714 9.51593L10.4159 9.2132C10.5063 9.02854 10.6617 8.88387 10.8524 8.80695C11.0415 8.73069 11.2523 8.7258 11.4442 8.79425V8.79523C11.7501 8.90991 12.0639 9.00219 12.3827 9.07355V9.07452C12.4644 9.09311 12.6615 9.14662 12.8573 9.16046C13.1907 9.22945 13.4905 9.40985 13.7079 9.67218C13.9008 9.905 14.0187 10.1895 14.0468 10.4886L14.0536 10.6175V12.6136L14.0448 12.7718C14.0284 12.9288 13.9874 13.0831 13.9227 13.2278C13.8582 13.3723 13.7716 13.5055 13.6659 13.6224L13.5536 13.7337C13.2783 13.9787 12.9221 14.1141 12.5536 14.1136H12.535L12.5155 14.1146C12.4567 14.1191 12.3975 14.1187 12.3387 14.1146C9.84696 13.7851 7.52171 12.6956 5.67664 11.0003L5.31335 10.6526C3.41501 8.7498 2.19762 6.27393 1.84949 3.6087L1.84851 3.60577L1.83582 3.44366C1.83133 3.2822 1.85208 3.12036 1.89929 2.96515C1.96231 2.75808 2.06897 2.56638 2.21277 2.4046C2.35349 2.2476 2.52707 2.12337 2.7196 2.03741C2.86431 1.97283 3.01774 1.93078 3.17468 1.91437L3.33289 1.90656ZM9.33289 4.50031C9.90734 4.50031 10.4588 4.728 10.8651 5.13409C11.2714 5.54035 11.4998 6.0918 11.4999 6.66632C11.4999 6.71053 11.4823 6.75323 11.451 6.78448C11.4198 6.8157 11.3771 6.83331 11.3329 6.83331C11.2889 6.8332 11.2468 6.81557 11.2157 6.78448C11.1844 6.75323 11.1669 6.71052 11.1669 6.66632C11.1668 6.18026 10.9734 5.71415 10.6298 5.37042C10.2859 5.02661 9.81912 4.83331 9.33289 4.83331C9.28889 4.8332 9.24684 4.81557 9.2157 4.78448C9.18444 4.75323 9.16687 4.71052 9.16687 4.66632C9.16696 4.62226 9.18455 4.58031 9.2157 4.54913C9.24685 4.51798 9.28884 4.50042 9.33289 4.50031ZM9.33289 1.83331C10.6137 1.83496 11.8419 2.34507 12.7469 3.25128C13.6518 4.15743 14.1599 5.38576 14.16 6.66632V7.09406C14.1551 7.13334 14.1376 7.16985 14.1083 7.19659C14.0774 7.22468 14.0367 7.23973 13.995 7.23956H13.9764C13.9352 7.23422 13.8969 7.21487 13.87 7.18292C13.8417 7.14922 13.8282 7.10568 13.8319 7.06183L13.8329 7.04132V6.66632C13.8328 5.47301 13.3593 4.32851 12.5155 3.48468C11.6716 2.64077 10.5264 2.16632 9.33289 2.16632H8.95886L8.93738 2.16827C8.89278 2.172 8.84855 2.15807 8.81433 2.12921C8.78006 2.1003 8.75856 2.05865 8.75476 2.01398C8.75106 1.96945 8.76504 1.92511 8.79382 1.89093C8.82123 1.85843 8.86021 1.83863 8.90222 1.83331H9.33289ZM6.49988 3.19757L6.48816 3.14386C6.42889 2.8807 6.27995 2.64571 6.06726 2.4798C5.85764 2.3163 5.59847 2.22989 5.33289 2.2337H3.33289C3.16956 2.23305 3.0078 2.26655 2.85828 2.33234C2.70827 2.39837 2.57379 2.49508 2.46375 2.61652C2.34728 2.74435 2.26029 2.89642 2.20984 3.06183C2.16032 3.22424 2.14728 3.3957 2.17078 3.56378V3.56476C2.51312 6.17213 3.7068 8.59389 5.56628 10.4534L5.56726 10.4544C7.42316 12.2976 9.83339 13.48 12.4266 13.8206V13.8216C12.4282 13.8218 12.4299 13.8214 12.4315 13.8216C12.4328 13.8218 12.4342 13.8224 12.4354 13.8226V13.8216C12.6038 13.8453 12.7757 13.8331 12.9384 13.7835C13.1037 13.7331 13.2549 13.645 13.3827 13.5286C13.5027 13.4199 13.5999 13.2879 13.6659 13.14C13.732 12.9915 13.766 12.8308 13.7665 12.6683V12.6517L13.7069 10.5921H13.7059C13.7063 10.3318 13.6203 10.078 13.4598 9.87238C13.294 9.65996 13.0596 9.51173 12.7968 9.45245L12.7782 9.44855L12.7596 9.44562L12.5048 9.40363C12.4204 9.38815 12.3373 9.371 12.2587 9.35284L12.2548 9.35187L12.0038 9.2923C11.7538 9.22844 11.507 9.15221 11.2645 9.06378L10.828 8.9046L10.6376 9.32843L10.2186 10.2581C10.2002 10.2981 10.1671 10.3296 10.1259 10.345L10.1102 10.3509C10.0705 10.3672 10.0261 10.3665 9.98621 10.3509C8.05128 9.4422 6.49469 7.88589 5.58679 5.9505C5.57261 5.91168 5.5731 5.8688 5.58875 5.83038L5.59265 5.82257L5.59558 5.81476C5.61093 5.77351 5.64156 5.73945 5.68152 5.72101L5.6864 5.71906L6.62 5.27863L7.03894 5.08136L6.8739 4.64874C6.75552 4.33741 6.65954 4.01794 6.58777 3.69269V3.69171L6.52332 3.42023C6.50812 3.35478 6.49988 3.3067 6.49988 3.25323V3.19757Z" fill="black" stroke="white"/>
</svg>
