<svg width="16" height="16" viewBox="0 0 16 16" fill="none" xmlns="http://www.w3.org/2000/svg">
<path d="M4.19329 9.52667L3.99996 9.72667V4.66667C3.99996 4.48986 3.92972 4.32029 3.8047 4.19526C3.67967 4.07024 3.51011 4 3.33329 4C3.15648 4 2.98691 4.07024 2.86189 4.19526C2.73687 4.32029 2.66663 4.48986 2.66663 4.66667V9.72667L2.47329 9.52667C2.34776 9.40113 2.1775 9.33061 1.99996 9.33061C1.82243 9.33061 1.65216 9.40113 1.52663 9.52667C1.40109 9.6522 1.33057 9.82247 1.33057 10C1.33057 10.1775 1.40109 10.3478 1.52663 10.4733L2.85996 11.8067C2.92336 11.8674 2.99813 11.9149 3.07996 11.9467C3.15976 11.9819 3.24605 12.0002 3.33329 12.0002C3.42054 12.0002 3.50683 11.9819 3.58663 11.9467C3.66846 11.9149 3.74322 11.8674 3.80663 11.8067L5.13996 10.4733C5.20212 10.4112 5.25143 10.3374 5.28507 10.2562C5.31871 10.175 5.33602 10.0879 5.33602 10C5.33602 9.91209 5.31871 9.82505 5.28507 9.74383C5.25143 9.66262 5.20212 9.58883 5.13996 9.52667C5.0778 9.46451 5.00401 9.4152 4.92279 9.38156C4.84158 9.34792 4.75453 9.33061 4.66663 9.33061C4.57872 9.33061 4.49168 9.34792 4.41046 9.38156C4.32925 9.4152 4.25545 9.46451 4.19329 9.52667ZM7.33329 5.33333H14C14.1768 5.33333 14.3463 5.2631 14.4714 5.13807C14.5964 5.01305 14.6666 4.84348 14.6666 4.66667C14.6666 4.48986 14.5964 4.32029 14.4714 4.19526C14.3463 4.07024 14.1768 4 14 4H7.33329C7.15648 4 6.98691 4.07024 6.86189 4.19526C6.73687 4.32029 6.66663 4.48986 6.66663 4.66667C6.66663 4.84348 6.73687 5.01305 6.86189 5.13807C6.98691 5.2631 7.15648 5.33333 7.33329 5.33333ZM14 7.33333H7.33329C7.15648 7.33333 6.98691 7.40357 6.86189 7.5286C6.73687 7.65362 6.66663 7.82319 6.66663 8C6.66663 8.17681 6.73687 8.34638 6.86189 8.4714C6.98691 8.59643 7.15648 8.66667 7.33329 8.66667H14C14.1768 8.66667 14.3463 8.59643 14.4714 8.4714C14.5964 8.34638 14.6666 8.17681 14.6666 8C14.6666 7.82319 14.5964 7.65362 14.4714 7.5286C14.3463 7.40357 14.1768 7.33333 14 7.33333ZM14 10.6667H7.33329C7.15648 10.6667 6.98691 10.7369 6.86189 10.8619C6.73687 10.987 6.66663 11.1565 6.66663 11.3333C6.66663 11.5101 6.73687 11.6797 6.86189 11.8047C6.98691 11.9298 7.15648 12 7.33329 12H14C14.1768 12 14.3463 11.9298 14.4714 11.8047C14.5964 11.6797 14.6666 11.5101 14.6666 11.3333C14.6666 11.1565 14.5964 10.987 14.4714 10.8619C14.3463 10.7369 14.1768 10.6667 14 10.6667Z" fill="#0A2A51"/>
</svg>
